# xmcd CD database file
#
# Track frame offsets:
#	150
#	13962
#	26800
#	35782
#	48982
#	62685
#	78087
#	92342
#	106752
#	119860
#	133690
#	147650
#	160895
#	172287
#
# Disc length: 2461 seconds
#
# Revision: 0
# Processed by: cddbd v1.5.2PL0 Copyright (c) Steve Scherf et al.
# Submitted via: CDex 1.70beta2
#
DISCID=c8099b0e
DTITLE=Martina, Al - The Collection
DYEAR=1997
DGENRE=Jazz
TTITLE0=It Had to be you
TTITLE1=All of me
TTITLE2=Three little words
TTITLE3=I've got you under my skin
TTITLE4=When your love has gone
TTITLE5=That old feeling
TTITLE6=Baby won't you please come home
TTITLE7=Makin'whoopee
TTITLE8=Whithout a word of warning
TTITLE9=Why do i love you?
TTITLE10=All or nothing at all
TTITLE11=Summertime
TTITLE12=Our concerto
TTITLE13=Sunday
EXTD=YEAR: 1997
EXTT0=
EXTT1=
EXTT2=
EXTT3=
EXTT4=
EXTT5=
EXTT6=
EXTT7=
EXTT8=
EXTT9=
EXTT10=
EXTT11=
EXTT12=
EXTT13=
PLAYORDER=
